<svg xmlns="http://www.w3.org/2000/svg" xmlns:xlink="http://www.w3.org/1999/xlink" preserveAspectRatio="xMidYMid" width="37.219" height="37.22" viewBox="0 0 37.219 37.22">
  <defs>
    <style>
      .cls-1, .cls-2 {
        fill: #fff;
        fill-rule: evenodd;
      }

      .cls-1 {
        opacity: 0.5;
      }

      .cls-2 {
        opacity: 0.8;
      }
    </style>
  </defs>
  <g>
    <path d="M18.613,-0.013 C28.896,-0.013 37.233,8.323 37.233,18.607 C37.233,28.890 28.896,37.226 18.613,37.226 C8.330,37.226 -0.006,28.890 -0.006,18.607 C-0.006,8.323 8.330,-0.013 18.613,-0.013 ZM18.553,2.978 C27.219,2.978 34.244,10.003 34.244,18.669 C34.244,27.336 27.219,34.361 18.553,34.361 C9.886,34.361 2.861,27.336 2.861,18.669 C2.861,10.003 9.886,2.978 18.553,2.978 Z" class="cls-1"/>
    <path d="M18.553,34.361 C9.886,34.361 2.861,27.336 2.861,18.669 C2.861,10.003 9.886,2.978 18.553,2.978 C27.219,2.978 34.244,10.003 34.244,18.669 C34.244,27.336 27.219,34.361 18.553,34.361 ZM22.462,9.046 L19.670,9.046 C16.376,9.046 15.588,10.592 15.588,13.388 L15.588,15.587 L13.699,15.587 L13.699,18.676 L15.588,18.676 L15.588,27.967 L19.326,27.967 L19.326,18.676 L22.069,18.676 L22.354,15.587 L19.326,15.587 L19.331,13.731 C19.331,12.837 19.416,12.475 20.698,12.475 L22.462,12.475 L22.462,9.046 Z" class="cls-2"/>
  </g>
</svg>
